<svg xmlns="http://www.w3.org/2000/svg" xmlns:xlink="http://www.w3.org/1999/xlink" viewBox="0 0 177.45 54.96"><defs><style>.cls-1{fill:url(#radial-gradient);}</style><radialGradient id="radial-gradient" cx="88.55" cy="27.72" r="65.91" gradientUnits="userSpaceOnUse"><stop offset="0" stop-color="#ff9901"/><stop offset="0.99" stop-color="#ff9901"/></radialGradient></defs><g id="Layer_2" data-name="Layer 2"><g id="Layer_1-2" data-name="Layer 1"><path class="cls-1" d="M177,54.91l0-2a.09.09,0,0,1,.08-.08.08.08,0,0,1,.09.08h0l0,2A0,0,0,0,1,177,55,.05.05,0,0,1,177,54.91Z"/><path class="cls-1" d="M176.89,48.92l-.06-4a.21.21,0,0,1,.21-.22.22.22,0,0,1,.22.21h0l-.07,4a.15.15,0,0,1-.15.15A.16.16,0,0,1,176.89,48.92Z"/><path class="cls-1" d="M176.78,41l0-4a.29.29,0,0,1,.3-.3.29.29,0,0,1,.3.29h0l0,4a.27.27,0,0,1-.27.26A.26.26,0,0,1,176.78,41Z"/><path class="cls-1" d="M176.7,33l0-4a.38.38,0,0,1,.37-.38.38.38,0,0,1,.38.38h0l0,4a.34.34,0,0,1-.68,0Z"/><path class="cls-1" d="M176.65,25V21a.4.4,0,0,1,.4-.41.4.4,0,0,1,.41.4h0l0,4a.38.38,0,0,1-.39.39A.39.39,0,0,1,176.65,25Z"/><path class="cls-1" d="M176.5,17.07a18.3,18.3,0,0,0-.88-3.79.44.44,0,0,1,.83-.29h0a19.42,19.42,0,0,1,.89,4,.43.43,0,0,1-.38.47A.41.41,0,0,1,176.5,17.07Z"/><path class="cls-1" d="M174,9.76a18.6,18.6,0,0,0-2.35-3.1.43.43,0,1,1,.63-.59,19,19,0,0,1,2.49,3.23.45.45,0,0,1-.77.46Z"/><path class="cls-1" d="M168.66,4.13a18.56,18.56,0,0,0-3.42-1.86.41.41,0,0,1-.21-.53.4.4,0,0,1,.52-.21,18.42,18.42,0,0,1,3.59,1.9.43.43,0,0,1,.11.59.42.42,0,0,1-.58.11Z"/><path class="cls-1" d="M161.51,1.16a19.64,19.64,0,0,0-3.92-.31.32.32,0,0,1-.32-.32.33.33,0,0,1,.31-.32h0a20.31,20.31,0,0,1,4,.24.36.36,0,1,1-.11.71Z"/><path class="cls-1" d="M153.61.81l-4,0a.25.25,0,0,1-.24-.24.24.24,0,0,1,.24-.24l4,0a.28.28,0,0,1,.28.28.29.29,0,0,1-.28.28Z"/><path class="cls-1" d="M145.63.73l-4,0a.18.18,0,1,1,0-.36l4,0a.2.2,0,1,1,0,.4Z"/><path class="cls-1" d="M137.65.69h-4a.15.15,0,0,1-.15-.15.15.15,0,0,1,.15-.15l4,0a.18.18,0,0,1,.17.17.17.17,0,0,1-.17.16Z"/><path class="cls-1" d="M129.68.69l-4,0a.18.18,0,0,1,0-.36h0l4,0a.16.16,0,1,1,0,.32Z"/><path class="cls-1" d="M121.7.72l-4,0a.22.22,0,0,1-.22-.22.21.21,0,0,1,.22-.22h0l4,0a.2.2,0,0,1,.19.19A.19.19,0,0,1,121.7.72Z"/><path class="cls-1" d="M113.72.79l-4,0a.29.29,0,1,1,0-.58h0l4,0a.26.26,0,0,1,.26.26A.26.26,0,0,1,113.72.79Z"/><path class="cls-1" d="M105.75.85l-4,0a.35.35,0,0,1-.36-.35.35.35,0,0,1,.35-.35h0l4,0a.31.31,0,0,1,.31.32A.31.31,0,0,1,105.75.85Z"/><path class="cls-1" d="M97.77.91l-4,0a.41.41,0,0,1-.42-.41.43.43,0,0,1,.42-.42h0l4,0a.38.38,0,0,1,0,.76Z"/><path class="cls-1" d="M89.79,1h-4a.46.46,0,0,1-.47-.46A.47.47,0,0,1,85.8.07h4a.45.45,0,1,1,0,.9Z"/><path class="cls-1" d="M81.82,1h-4a.49.49,0,0,1-.49-.49A.48.48,0,0,1,77.83,0h4a.48.48,0,0,1,0,1Z"/><path class="cls-1" d="M73.84,1h-4a.52.52,0,0,1-.52-.52A.52.52,0,0,1,69.85,0h4a.51.51,0,0,1,.51.51A.52.52,0,0,1,73.84,1Z"/><path class="cls-1" d="M65.86,1.06h-4a.52.52,0,0,1-.53-.52A.52.52,0,0,1,61.88,0h4a.53.53,0,0,1,.53.53.52.52,0,0,1-.52.53Z"/><path class="cls-1" d="M57.89,1.05h-4a.51.51,0,0,1,0-1h4a.52.52,0,0,1,.52.52.52.52,0,0,1-.52.52Z"/><path class="cls-1" d="M49.91,1h-4a.5.5,0,0,1,0-1h4a.51.51,0,1,1,0,1Z"/><path class="cls-1" d="M41.93,1,38,1a.43.43,0,0,1-.44-.44A.43.43,0,0,1,38,.09l4,0a.49.49,0,0,1,.49.48.49.49,0,0,1-.48.48Z"/><path class="cls-1" d="M34,.94l-4,0a.38.38,0,0,1-.38-.38A.39.39,0,0,1,30,.15l4,0a.41.41,0,0,1,.41.41.41.41,0,0,1-.4.41Z"/><path class="cls-1" d="M26,.88l-4,0a.31.31,0,1,1,0-.62l4,0a.35.35,0,0,1,.35.35A.35.35,0,0,1,26,.88Z"/><path class="cls-1" d="M18,.81l-4,0a.25.25,0,0,1-.25-.25A.25.25,0,0,1,14,.28l4,0a.28.28,0,0,1,.28.28A.29.29,0,0,1,18,.81Z"/><path class="cls-1" d="M10,.73,6,.67A.14.14,0,0,1,5.9.53.14.14,0,0,1,6,.39l4-.06a.2.2,0,1,1,0,.4Z"/><path class="cls-1" d="M2.05.61l-2,0a0,0,0,0,1,0,0A0,0,0,0,1,.05.48l2,0a.08.08,0,0,1,0,.16Z"/></g></g></svg>