<svg xmlns="http://www.w3.org/2000/svg" xmlns:xlink="http://www.w3.org/1999/xlink" viewBox="0 0 17.3 17.3"><defs><style>.cls-1{isolation:isolate;}.cls-2{fill:url(#radial-gradient);}.cls-3{fill:#fff;}.cls-4{mix-blend-mode:overlay;fill:url(#linear-gradient);}</style><radialGradient id="radial-gradient" cx="7.88" cy="-9.43" r="36.81" gradientUnits="userSpaceOnUse"><stop offset="0" stop-color="#ff9901"/><stop offset="0.99" stop-color="#ff9901"/></radialGradient><linearGradient id="linear-gradient" x1="8.85" y1="5.28" x2="8.34" y2="13.82" gradientUnits="userSpaceOnUse"><stop offset="0" stop-color="#fff"/><stop offset="0.07" stop-color="#fff" stop-opacity="0.85"/><stop offset="0.21" stop-color="#fff" stop-opacity="0.59"/><stop offset="0.34" stop-color="#fff" stop-opacity="0.38"/><stop offset="0.45" stop-color="#fff" stop-opacity="0.22"/><stop offset="0.56" stop-color="#fff" stop-opacity="0.1"/><stop offset="0.65" stop-color="#fff" stop-opacity="0.03"/><stop offset="0.72" stop-color="#fff" stop-opacity="0"/></linearGradient></defs><g class="cls-1"><g id="Layer_2" data-name="Layer 2"><g id="Layer_1-2" data-name="Layer 1"><path class="cls-2" d="M8.65,16.85a.46.46,0,0,1-.45-.41C7.66,9.91,7.39,9.64.87,9.1a.45.45,0,0,1-.42-.45A.46.46,0,0,1,.87,8.2C7.39,7.66,7.66,7.39,8.2.87a.45.45,0,0,1,.9,0c.54,6.52.81,6.79,7.34,7.33a.46.46,0,0,1,.41.45.45.45,0,0,1-.41.45c-6.53.54-6.8.81-7.34,7.34a.46.46,0,0,1-.45.41Z"/><path class="cls-3" d="M8.65.9c.56,6.74,1,7.19,7.75,7.75-6.74.56-7.19,1-7.75,7.75C8.09,9.66,7.64,9.21.9,8.65c6.74-.56,7.19-1,7.75-7.75m0-.9a.9.9,0,0,0-.9.83C7.23,7.1,7.1,7.23.83,7.75a.9.9,0,0,0,0,1.8c6.27.52,6.4.65,6.92,6.92a.9.9,0,0,0,.9.83h0a.9.9,0,0,0,.9-.83c.52-6.27.65-6.4,6.92-6.92a.9.9,0,0,0,0-1.8C10.2,7.23,10.07,7.1,9.55.83A.9.9,0,0,0,8.65,0Z"/><circle class="cls-4" cx="8.65" cy="8.65" r="5.28"/></g></g></g></svg>