<svg xmlns="http://www.w3.org/2000/svg" xmlns:xlink="http://www.w3.org/1999/xlink" viewBox="0 0 303.03 39.4"><defs><style>.cls-1{isolation:isolate;}.cls-2{opacity:0.58;mix-blend-mode:overlay;}.cls-3{fill:url(#linear-gradient);}.cls-4{fill:url(#linear-gradient-2);}.cls-5{fill:url(#linear-gradient-3);}.cls-6{fill:url(#linear-gradient-4);}.cls-7{fill:url(#linear-gradient-5);}.cls-8{fill:url(#linear-gradient-6);}.cls-9{fill:url(#linear-gradient-7);}</style><linearGradient id="linear-gradient" x1="27.46" x2="27.46" y2="39.4" gradientUnits="userSpaceOnUse"><stop offset="0" stop-color="#fff"/><stop offset="1" stop-color="#bfbfbf" stop-opacity="0"/></linearGradient><linearGradient id="linear-gradient-2" x1="108.04" x2="108.04" y2="39.4" xlink:href="#linear-gradient"/><linearGradient id="linear-gradient-3" x1="197.6" x2="197.6" y2="39.4" xlink:href="#linear-gradient"/><linearGradient id="linear-gradient-4" x1="250.83" x2="250.83" y2="39.4" xlink:href="#linear-gradient"/><linearGradient id="linear-gradient-5" x1="79.02" x2="79.02" y2="39.4" xlink:href="#linear-gradient"/><linearGradient id="linear-gradient-6" x1="153.13" x2="153.13" y2="39.4" xlink:href="#linear-gradient"/><linearGradient id="linear-gradient-7" x1="275.12" x2="275.12" y2="39.4" xlink:href="#linear-gradient"/></defs><g class="cls-1"><g id="Layer_2" data-name="Layer 2"><g id="Layer_1-2" data-name="Layer 1"><g class="cls-2"><path class="cls-3" d="M54.93,0,26.85,39.4H4.22A8.2,8.2,0,0,1,0,38.24L29.3,0Z"/><polygon class="cls-4" points="127.95 0 99.87 39.4 88.13 39.4 118.33 0 127.95 0"/><polygon class="cls-5" points="222.81 0 194.3 39.4 172.38 39.4 202.58 0 222.81 0"/><polygon class="cls-6" points="271.05 0 242.54 39.4 230.62 39.4 260.82 0 271.05 0"/><polygon class="cls-7" points="106.93 0 78.85 39.4 51.11 39.4 81.31 0 106.93 0"/><polygon class="cls-8" points="181.04 0 152.96 39.4 125.22 39.4 155.41 0 181.04 0"/><polygon class="cls-9" points="303.03 0 274.95 39.4 247.21 39.4 277.4 0 303.03 0"/></g></g></g></g></svg>