<svg xmlns="http://www.w3.org/2000/svg" xmlns:xlink="http://www.w3.org/1999/xlink" viewBox="0 0 63.37 4.87"><defs><style>.cls-1{isolation:isolate;}.cls-2{fill:url(#radial-gradient);}.cls-11,.cls-3,.cls-5,.cls-7,.cls-9{mix-blend-mode:overlay;}.cls-3{fill:url(#linear-gradient);}.cls-4{fill:url(#radial-gradient-2);}.cls-5{fill:url(#linear-gradient-2);}.cls-6{fill:url(#radial-gradient-3);}.cls-7{fill:url(#linear-gradient-3);}.cls-8{fill:url(#radial-gradient-4);}.cls-9{fill:url(#linear-gradient-4);}.cls-10{fill:url(#radial-gradient-5);}.cls-11{fill:url(#linear-gradient-5);}</style><radialGradient id="radial-gradient" cx="-338.95" cy="-121.2" r="1.72" gradientTransform="translate(-118.77 341.39) rotate(90)" gradientUnits="userSpaceOnUse"><stop offset="0" stop-color="#ff9901"/><stop offset="0.99" stop-color="#ff9901"/></radialGradient><linearGradient id="linear-gradient" x1="-340.36" y1="-122.6" x2="-337.55" y2="-119.8" gradientTransform="translate(341.39 123.64)" gradientUnits="userSpaceOnUse"><stop offset="0" stop-color="#fff"/><stop offset="1" stop-color="#bfbfbf" stop-opacity="0"/></linearGradient><radialGradient id="radial-gradient-2" cx="-328.62" cy="-131.53" r="1.72" gradientTransform="translate(-114.49 331.06) rotate(90)" xlink:href="#radial-gradient"/><linearGradient id="linear-gradient-2" x1="-330.02" y1="-132.93" x2="-327.22" y2="-130.13" gradientTransform="translate(345.67 133.97)" xlink:href="#linear-gradient"/><radialGradient id="radial-gradient-3" cx="-318.29" cy="-141.86" r="1.72" gradientTransform="translate(-110.21 320.73) rotate(90)" xlink:href="#radial-gradient"/><linearGradient id="linear-gradient-3" x1="-319.69" y1="-143.27" x2="-316.89" y2="-140.46" gradientTransform="translate(349.95 144.3)" xlink:href="#linear-gradient"/><radialGradient id="radial-gradient-4" cx="-307.92" cy="-152.23" r="1.72" gradientTransform="translate(-105.91 310.36) rotate(90)" xlink:href="#radial-gradient"/><linearGradient id="linear-gradient-4" x1="-309.32" y1="-153.63" x2="-306.52" y2="-150.83" gradientTransform="translate(354.24 154.67)" xlink:href="#linear-gradient"/><radialGradient id="radial-gradient-5" cx="-297.59" cy="-162.56" r="1.72" gradientTransform="translate(-101.63 300.03) rotate(90)" xlink:href="#radial-gradient"/><linearGradient id="linear-gradient-5" x1="-298.99" y1="-163.97" x2="-296.19" y2="-161.16" gradientTransform="translate(358.52 165)" xlink:href="#linear-gradient"/></defs><g class="cls-1"><g id="Layer_2" data-name="Layer 2"><g id="Layer_1-2" data-name="Layer 1"><rect class="cls-2" x="0.71" y="0.71" width="3.44" height="3.44" transform="translate(-1.01 2.43) rotate(-45)"/><rect class="cls-3" x="1.03" y="1.03" width="2.8" height="2.8" transform="translate(2.43 -1.01) rotate(45)"/><rect class="cls-4" x="15.32" y="0.71" width="3.44" height="3.44" transform="translate(3.27 12.77) rotate(-45)"/><rect class="cls-5" x="15.64" y="1.03" width="2.8" height="2.8" transform="translate(6.71 -11.34) rotate(45)"/><rect class="cls-6" x="29.94" y="0.71" width="3.44" height="3.44" transform="translate(7.55 23.1) rotate(-45)"/><rect class="cls-7" x="30.26" y="1.03" width="2.8" height="2.8" transform="translate(10.99 -21.67) rotate(45)"/><rect class="cls-8" x="44.6" y="0.71" width="3.44" height="3.44" transform="translate(11.85 33.47) rotate(-45)"/><rect class="cls-9" x="44.92" y="1.03" width="2.8" height="2.8" transform="translate(15.29 -32.04) rotate(45)"/><rect class="cls-10" x="59.21" y="0.71" width="3.44" height="3.44" transform="translate(16.12 43.8) rotate(-45)"/><rect class="cls-11" x="59.53" y="1.03" width="2.8" height="2.8" transform="translate(19.57 -42.37) rotate(45)"/></g></g></g></svg>