<svg xmlns="http://www.w3.org/2000/svg" xmlns:xlink="http://www.w3.org/1999/xlink" viewBox="0 0 40.71 37.85"><defs><style>.cls-1{isolation:isolate;}.cls-2{fill:url(#radial-gradient);}.cls-3{fill:#fff;}.cls-4,.cls-6{mix-blend-mode:overlay;}.cls-4{fill:url(#linear-gradient);}.cls-5{fill:url(#radial-gradient-2);}.cls-6{fill:url(#linear-gradient-2);}</style><radialGradient id="radial-gradient" cx="16.1" cy="-17.99" r="77.57" gradientUnits="userSpaceOnUse"><stop offset="0" stop-color="#ff9901"/><stop offset="0.99" stop-color="#ff9901"/></radialGradient><linearGradient id="linear-gradient" x1="18.16" y1="12.8" x2="17.06" y2="31.35" gradientUnits="userSpaceOnUse"><stop offset="0" stop-color="#fff"/><stop offset="0.07" stop-color="#fff" stop-opacity="0.85"/><stop offset="0.21" stop-color="#fff" stop-opacity="0.59"/><stop offset="0.34" stop-color="#fff" stop-opacity="0.38"/><stop offset="0.45" stop-color="#fff" stop-opacity="0.22"/><stop offset="0.56" stop-color="#fff" stop-opacity="0.1"/><stop offset="0.65" stop-color="#fff" stop-opacity="0.03"/><stop offset="0.72" stop-color="#fff" stop-opacity="0"/></linearGradient><radialGradient id="radial-gradient-2" cx="31.28" cy="-9.43" r="36.81" xlink:href="#radial-gradient"/><linearGradient id="linear-gradient-2" x1="32.26" y1="5.28" x2="31.75" y2="13.82" xlink:href="#linear-gradient"/></defs><g class="cls-1"><g id="Layer_2" data-name="Layer 2"><g id="Layer_1-2" data-name="Layer 1"><path class="cls-2" d="M17.73,37.4a.45.45,0,0,1-.45-.42c-1.19-14.45-2-15.22-16.41-16.41a.46.46,0,0,1-.42-.45.45.45,0,0,1,.42-.45c14.45-1.19,15.22-2,16.41-16.41a.45.45,0,0,1,.45-.42h0a.46.46,0,0,1,.45.42c1.19,14.45,2,15.22,16.41,16.41a.45.45,0,0,1,.42.45.46.46,0,0,1-.42.45c-14.45,1.19-15.22,2-16.41,16.41A.46.46,0,0,1,17.73,37.4Z"/><path class="cls-3" d="M17.73,3.29c1.21,14.64,2.18,15.62,16.82,16.83C19.91,21.33,18.94,22.31,17.73,37,16.52,22.31,15.54,21.33.9,20.12c14.64-1.21,15.62-2.19,16.83-16.83m0-.9a.9.9,0,0,0-.9.83c-1.17,14.23-1.77,14.83-16,16a.9.9,0,0,0,0,1.8c14.23,1.17,14.83,1.77,16,16a.9.9,0,0,0,1.8,0c1.17-14.23,1.77-14.83,16-16a.9.9,0,0,0,0-1.8c-14.23-1.17-14.83-1.77-16-16a.9.9,0,0,0-.9-.83Z"/><circle class="cls-4" cx="17.73" cy="20.12" r="11.47"/><path class="cls-5" d="M32.06,16.85a.45.45,0,0,1-.45-.41c-.54-6.53-.81-6.8-7.34-7.34a.45.45,0,0,1-.41-.45.46.46,0,0,1,.41-.45c6.53-.54,6.8-.81,7.34-7.33a.45.45,0,0,1,.45-.42h0a.46.46,0,0,1,.45.42c.54,6.52.81,6.79,7.33,7.33a.46.46,0,0,1,.42.45.45.45,0,0,1-.42.45c-6.52.54-6.79.81-7.33,7.34A.46.46,0,0,1,32.06,16.85Z"/><path class="cls-3" d="M32.06.9c.55,6.74,1,7.19,7.75,7.75-6.75.56-7.2,1-7.75,7.75-.56-6.74-1-7.19-7.75-7.75,6.74-.56,7.19-1,7.75-7.75m0-.9a.9.9,0,0,0-.9.83c-.52,6.27-.65,6.4-6.93,6.92a.9.9,0,0,0,0,1.8c6.28.52,6.41.65,6.93,6.92a.9.9,0,0,0,1.8,0c.51-6.27.64-6.4,6.92-6.92a.9.9,0,0,0,0-1.8C33.6,7.23,33.47,7.1,33,.83a.9.9,0,0,0-.9-.83Z"/><circle class="cls-6" cx="32.06" cy="8.65" r="5.28"/></g></g></g></svg>