<svg xmlns="http://www.w3.org/2000/svg" xmlns:xlink="http://www.w3.org/1999/xlink" viewBox="0 0 177.04 67.67"><defs><style>.cls-1{isolation:isolate;}.cls-2{fill:url(#radial-gradient);}.cls-3{fill:url(#radial-gradient-2);}.cls-4{fill:#ab4b00;opacity:0.35;mix-blend-mode:multiply;}.cls-17,.cls-18,.cls-19,.cls-20,.cls-23,.cls-35,.cls-36,.cls-37,.cls-38,.cls-5{mix-blend-mode:overlay;}.cls-5{fill:url(#linear-gradient);}.cls-6{fill:url(#linear-gradient-2);}.cls-7{fill:url(#linear-gradient-3);}.cls-8{fill:url(#linear-gradient-4);}.cls-9{fill:url(#linear-gradient-5);}.cls-10{fill:url(#linear-gradient-6);}.cls-11{fill:url(#linear-gradient-7);}.cls-12{fill:url(#linear-gradient-8);}.cls-13{fill:url(#linear-gradient-9);}.cls-14{fill:url(#linear-gradient-10);}.cls-15{fill:url(#linear-gradient-11);}.cls-16{fill:url(#linear-gradient-12);}.cls-17{fill:url(#radial-gradient-3);}.cls-18{fill:url(#radial-gradient-4);}.cls-19{fill:url(#radial-gradient-5);}.cls-20{fill:url(#radial-gradient-7);}.cls-21{fill:url(#radial-gradient-8);}.cls-22{fill:url(#radial-gradient-9);}.cls-23{fill:url(#linear-gradient-13);}.cls-24{fill:url(#linear-gradient-14);}.cls-25{fill:url(#linear-gradient-15);}.cls-26{fill:url(#linear-gradient-16);}.cls-27{fill:url(#linear-gradient-17);}.cls-28{fill:url(#linear-gradient-18);}.cls-29{fill:url(#linear-gradient-19);}.cls-30{fill:url(#linear-gradient-20);}.cls-31{fill:url(#linear-gradient-21);}.cls-32{fill:url(#linear-gradient-22);}.cls-33{fill:url(#linear-gradient-23);}.cls-34{fill:url(#linear-gradient-24);}.cls-35{fill:url(#radial-gradient-10);}.cls-36{fill:url(#radial-gradient-11);}.cls-37{fill:url(#radial-gradient-12);}.cls-38{fill:url(#radial-gradient-14);}</style><radialGradient id="radial-gradient" cx="20.77" cy="33.83" r="26.62" gradientUnits="userSpaceOnUse"><stop offset="0" stop-color="#ff9901"/><stop offset="0.99" stop-color="#ff9901"/></radialGradient><radialGradient id="radial-gradient-2" cx="20.77" cy="33.84" r="28.07" gradientUnits="userSpaceOnUse"><stop offset="0.23" stop-color="#9d5000"/><stop offset="0.98" stop-color="#1f0f01"/></radialGradient><linearGradient id="linear-gradient" x1="30.28" y1="15.93" x2="28.75" y2="46.88" gradientUnits="userSpaceOnUse"><stop offset="0" stop-color="#fff"/><stop offset="0.06" stop-color="#fff" stop-opacity="0.85"/><stop offset="0.18" stop-color="#fff" stop-opacity="0.59"/><stop offset="0.29" stop-color="#fff" stop-opacity="0.38"/><stop offset="0.39" stop-color="#fff" stop-opacity="0.22"/><stop offset="0.48" stop-color="#fff" stop-opacity="0.1"/><stop offset="0.56" stop-color="#fff" stop-opacity="0.03"/><stop offset="0.61" stop-color="#fff" stop-opacity="0"/></linearGradient><linearGradient id="linear-gradient-2" x1="28.75" y1="6.89" x2="34.08" y2="6.89" gradientUnits="userSpaceOnUse"><stop offset="0.23" stop-color="#9d5000"/><stop offset="0.98" stop-color="#753c02"/></linearGradient><linearGradient id="linear-gradient-3" x1="28.39" y1="10.75" x2="38.37" y2="10.75" xlink:href="#linear-gradient-2"/><linearGradient id="linear-gradient-4" x1="27.69" y1="16.73" x2="39.12" y2="16.73" xlink:href="#linear-gradient-2"/><linearGradient id="linear-gradient-5" x1="24.01" y1="20.45" x2="36.73" y2="20.45" xlink:href="#linear-gradient-2"/><linearGradient id="linear-gradient-6" x1="17.93" y1="24.5" x2="32.06" y2="24.5" xlink:href="#linear-gradient-2"/><linearGradient id="linear-gradient-7" x1="12.93" y1="30.25" x2="27.61" y2="30.25" xlink:href="#linear-gradient-2"/><linearGradient id="linear-gradient-8" x1="3.6" y1="37.59" x2="22.5" y2="37.59" xlink:href="#linear-gradient-2"/><linearGradient id="linear-gradient-9" x1="3.16" y1="41.64" x2="24.96" y2="41.64" xlink:href="#linear-gradient-2"/><linearGradient id="linear-gradient-10" x1="9.2" y1="46.94" x2="26.69" y2="46.94" xlink:href="#linear-gradient-2"/><linearGradient id="linear-gradient-11" x1="14.38" y1="50.76" x2="30.1" y2="50.76" xlink:href="#linear-gradient-2"/><linearGradient id="linear-gradient-12" x1="16.93" y1="54.47" x2="37.29" y2="54.47" xlink:href="#linear-gradient-2"/><radialGradient id="radial-gradient-3" cx="12.84" cy="25.32" r="43.93" gradientUnits="userSpaceOnUse"><stop offset="0" stop-color="#fff"/><stop offset="0.07" stop-color="#fff" stop-opacity="0.85"/><stop offset="0.21" stop-color="#fff" stop-opacity="0.59"/><stop offset="0.34" stop-color="#fff" stop-opacity="0.38"/><stop offset="0.45" stop-color="#fff" stop-opacity="0.22"/><stop offset="0.56" stop-color="#fff" stop-opacity="0.1"/><stop offset="0.65" stop-color="#fff" stop-opacity="0.03"/><stop offset="0.72" stop-color="#fff" stop-opacity="0"/></radialGradient><radialGradient id="radial-gradient-4" cx="7.83" cy="36.29" r="44.3" gradientUnits="userSpaceOnUse"><stop offset="0" stop-color="#fff"/><stop offset="0.09" stop-color="#fff" stop-opacity="0.85"/><stop offset="0.26" stop-color="#fff" stop-opacity="0.59"/><stop offset="0.42" stop-color="#fff" stop-opacity="0.38"/><stop offset="0.57" stop-color="#fff" stop-opacity="0.22"/><stop offset="0.7" stop-color="#fff" stop-opacity="0.1"/><stop offset="0.82" stop-color="#fff" stop-opacity="0.03"/><stop offset="0.9" stop-color="#fff" stop-opacity="0"/></radialGradient><radialGradient id="radial-gradient-5" cx="10.95" cy="41.31" r="17.65" xlink:href="#radial-gradient-3"/><radialGradient id="radial-gradient-7" cx="30.9" cy="34.14" r="29.87" xlink:href="#radial-gradient-3"/><radialGradient id="radial-gradient-8" cx="-2559.44" cy="33.83" r="26.62" gradientTransform="matrix(-1, 0, 0, 1, -2403.17, 0)" xlink:href="#radial-gradient"/><radialGradient id="radial-gradient-9" cx="156.27" cy="33.84" r="28.07" xlink:href="#radial-gradient-2"/><linearGradient id="linear-gradient-13" x1="-2549.93" y1="15.93" x2="-2551.46" y2="46.88" gradientTransform="matrix(-1, 0, 0, 1, -2403.17, 0)" xlink:href="#linear-gradient"/><linearGradient id="linear-gradient-14" x1="148.29" y1="6.89" x2="142.96" y2="6.89" xlink:href="#linear-gradient-2"/><linearGradient id="linear-gradient-15" x1="148.64" y1="10.75" x2="138.66" y2="10.75" xlink:href="#linear-gradient-2"/><linearGradient id="linear-gradient-16" x1="149.35" y1="16.73" x2="137.92" y2="16.73" xlink:href="#linear-gradient-2"/><linearGradient id="linear-gradient-17" x1="153.03" y1="20.45" x2="140.31" y2="20.45" xlink:href="#linear-gradient-2"/><linearGradient id="linear-gradient-18" x1="159.11" y1="24.5" x2="144.98" y2="24.5" xlink:href="#linear-gradient-2"/><linearGradient id="linear-gradient-19" x1="164.1" y1="30.25" x2="149.43" y2="30.25" xlink:href="#linear-gradient-2"/><linearGradient id="linear-gradient-20" x1="173.44" y1="37.59" x2="154.53" y2="37.59" xlink:href="#linear-gradient-2"/><linearGradient id="linear-gradient-21" x1="173.88" y1="41.64" x2="152.08" y2="41.64" xlink:href="#linear-gradient-2"/><linearGradient id="linear-gradient-22" x1="167.83" y1="46.94" x2="150.35" y2="46.94" xlink:href="#linear-gradient-2"/><linearGradient id="linear-gradient-23" x1="162.66" y1="50.76" x2="146.93" y2="50.76" xlink:href="#linear-gradient-2"/><linearGradient id="linear-gradient-24" x1="160.11" y1="54.47" x2="139.75" y2="54.47" xlink:href="#linear-gradient-2"/><radialGradient id="radial-gradient-10" cx="-2567.37" cy="25.32" r="43.93" gradientTransform="matrix(-1, 0, 0, 1, -2403.17, 0)" xlink:href="#radial-gradient-3"/><radialGradient id="radial-gradient-11" cx="-2572.38" cy="36.29" r="44.3" gradientTransform="matrix(-1, 0, 0, 1, -2403.17, 0)" xlink:href="#radial-gradient-4"/><radialGradient id="radial-gradient-12" cx="-2569.26" cy="41.31" r="17.65" gradientTransform="matrix(-1, 0, 0, 1, -2403.17, 0)" xlink:href="#radial-gradient-3"/><radialGradient id="radial-gradient-14" cx="-2549.31" cy="34.14" r="29.87" gradientTransform="matrix(-1, 0, 0, 1, -2403.17, 0)" xlink:href="#radial-gradient-3"/></defs><g class="cls-1"><g id="Layer_2" data-name="Layer 2"><g id="Layer_1-2" data-name="Layer 1"><path class="cls-2" d="M40,47.93C35.14,59.48,23.36,64.45,19.56,65.78c-.75.27-1.19.39-1.19.39s-1.92-5.7-4.76-8.33c-.87-.8-3.77-1.77-3.87-2.32s-.4-3.77-2.36-6-3.88-2-4.13-4.12S1.32,40.79,1.51,39.3s3.11-3.38,3.37-3.57.7-2.3,1.92-3.15,1.79-.14,3.07-1.83a6.09,6.09,0,0,1,3.24-2.16,7.25,7.25,0,0,0,1.82-2.49A9.8,9.8,0,0,1,18.44,23s.94-.19,2.24-2a5.61,5.61,0,0,1,3.57-2.15c.12,0,1.94-2.49,2.16-2.63s2.49-.47,3-2.36-.83-3.7-.77-4.53,1.11-1.36,0-2.72a53.53,53.53,0,0,0-4.08-3.79c-.78-.68-1.38-1.18-1.48-1.27s2.22.66,4.26,1.07a19.16,19.16,0,0,1,3.53,1c3.43,1.38,3.29,4,3.29,4a13.59,13.59,0,0,1,3.3,2.49c1.38,1.49,1,4.09,1,4.09a4.3,4.3,0,0,1,.44,1.94c-.06,1-1.82,2.19-1.82,2.19a3.78,3.78,0,0,1-.73,3c-1.08,1.27-4.58,3-4.58,3a3.09,3.09,0,0,1-.5,2.63c-.94,1.1-3.88,2.07-3.88,2.07a1.29,1.29,0,0,1,0,.19q0,.13,0,.33a6.83,6.83,0,0,1-.62,2c-.66,1.33-4.64,4.37-4.64,4.37a6.39,6.39,0,0,1,2.65,1.25,5.57,5.57,0,0,1,1.8,3.13,9.76,9.76,0,0,1,3.34,2.37,10.5,10.5,0,0,1,3.88,1.11A41.07,41.07,0,0,1,40,47.93Z"/><path class="cls-3" d="M23.05,1.5s2.22.66,4.27,1.07a19.61,19.61,0,0,1,3.53,1c3.42,1.38,3.28,4,3.28,4a13.75,13.75,0,0,1,3.31,2.49c1.38,1.49,1,4.09,1,4.09a4.3,4.3,0,0,1,.44,1.94c0,1-1.82,2.19-1.82,2.19a3.8,3.8,0,0,1-.72,3c-1.09,1.27-4.59,3-4.59,3a3.09,3.09,0,0,1-.5,2.63c-.94,1.1-3.88,2.07-3.88,2.07s0,.07,0,.19,0,.2,0,.33a7.15,7.15,0,0,1-.62,2c-.67,1.33-4.65,4.37-4.65,4.37a6.45,6.45,0,0,1,2.66,1.25,5.59,5.59,0,0,1,1.79,3.13,9.86,9.86,0,0,1,3.35,2.37,10.55,10.55,0,0,1,3.88,1.11A41.34,41.34,0,0,1,40,47.93C35.14,59.48,23.36,64.45,19.57,65.78c-.76.27-1.2.39-1.2.39s-1.91-5.7-4.76-8.33c-.87-.8-3.76-1.77-3.87-2.32s-.39-3.77-2.36-6-3.88-2-4.13-4.12S1.33,40.79,1.51,39.3s3.11-3.38,3.37-3.57.71-2.3,1.92-3.15,1.8-.14,3.07-1.83a6.09,6.09,0,0,1,3.24-2.16,7.19,7.19,0,0,0,1.83-2.49A9.72,9.72,0,0,1,18.45,23s.93-.19,2.24-2a5.58,5.58,0,0,1,3.56-2.15c.12,0,1.95-2.49,2.16-2.63s2.49-.47,3-2.36-.82-3.7-.77-4.53,1.11-1.36,0-2.72a51.68,51.68,0,0,0-4.08-3.79c-.78-.68-1.38-1.18-1.48-1.27m0-1.5a1.51,1.51,0,0,0-1.42,1,1.49,1.49,0,0,0,.47,1.66c.1.09.69.58,1.45,1.24a47.82,47.82,0,0,1,3.91,3.63,2,2,0,0,1,.15.2c0,.06-.06.13-.09.18a3.24,3.24,0,0,0-.38,1.28A4.23,4.23,0,0,0,27.55,11a4.3,4.3,0,0,1,.41,2.4c-.18.67-.93,1-1.71,1.22a2.53,2.53,0,0,0-.64.26c-.31.2-.49.42-1.47,1.68l-.66.85a7.1,7.1,0,0,0-4,2.64,4.77,4.77,0,0,1-1.39,1.43c-.16,0-.16.05-.34.14a11.1,11.1,0,0,0-4.13,3.76,8.88,8.88,0,0,1-1.23,1.84,7.58,7.58,0,0,0-3.7,2.61c-.47.61-.62.65-1,.76a4.54,4.54,0,0,0-1.71.74,6.77,6.77,0,0,0-2.1,3.14c0,.07-.05.14-.08.2C1.42,36.31.2,37.76,0,39.11a7.94,7.94,0,0,0,.88,3.75,11.58,11.58,0,0,1,.86,2.67,4.27,4.27,0,0,0,2.48,3.34,7.81,7.81,0,0,1,2,1.59,10.08,10.08,0,0,1,2,5c0,.15,0,.27,0,.35.21,1,1.18,1.5,2.64,2.21a10.63,10.63,0,0,1,1.68.92c2.54,2.34,4.35,7.65,4.36,7.71a1.51,1.51,0,0,0,1.42,1,1.75,1.75,0,0,0,.4,0s.5-.14,1.31-.43c3.7-1.29,16.18-6.48,21.35-18.68A1.49,1.49,0,0,0,41,46.77a41,41,0,0,0-6.63-4.46,13.74,13.74,0,0,0-3.81-1.19,11.59,11.59,0,0,0-2.76-2,6.58,6.58,0,0,0-2.17-3.27c-.23-.17-.45-.32-.67-.46A14.15,14.15,0,0,0,28,32.11a8.37,8.37,0,0,0,.7-2.1,10,10,0,0,0,3.64-2.19,4.2,4.2,0,0,0,1-2.73,16,16,0,0,0,4.13-2.86A4.93,4.93,0,0,0,38.6,19a4.39,4.39,0,0,0,1.76-2.8,5.38,5.38,0,0,0-.4-2.26,6.66,6.66,0,0,0-1.42-4.87,15.17,15.17,0,0,0-3-2.4A6.2,6.2,0,0,0,31.4,2.19,20,20,0,0,0,27.6,1.1c-1.1-.22-2.44-.56-4-1a2,2,0,0,0-.56-.1Z"/><path class="cls-4" d="M40,47.93a16.33,16.33,0,0,1-.77,1.64c-6.36,12.57-20.89,16.6-20.89,16.6s-1.92-5.7-4.76-8.33c-.87-.8-3.77-1.77-3.87-2.32s-.4-3.77-2.36-6-3.88-2-4.13-4.12S1.32,40.79,1.51,39.3s3.11-3.38,3.37-3.57.7-2.3,1.92-3.15,1.79-.14,3.07-1.83a6.09,6.09,0,0,1,3.24-2.16,7.25,7.25,0,0,0,1.82-2.49A9.8,9.8,0,0,1,18.44,23s.94-.19,2.24-2a5.61,5.61,0,0,1,3.57-2.15c.12,0,1.94-2.49,2.16-2.63s2.49-.47,3-2.36-.83-3.7-.77-4.53,1.11-1.36,0-2.72a60.51,60.51,0,0,0-4.93-4.41c.32.13,5.71,2.22,6.75,4.48a2.68,2.68,0,0,1-.71,3.5,3.65,3.65,0,0,1,1.69,3c-.1,1.83-2.41,3.54-2.41,3.54a8.26,8.26,0,0,0-2.41,1.27,4.36,4.36,0,0,0-1.26,2.45,6.88,6.88,0,0,0-3.59.95,4.07,4.07,0,0,0-1.66,2.94,13.53,13.53,0,0,0-3.62,1.84c-1.52,1.19-2.14,4.08-2.14,4.08a4.23,4.23,0,0,0-3.17,2.34c-1,2.1-1.14,1.64-2.94,2.22s-1.15,3.92-1.15,3.92-2.37,1.54-2,3.76,2.69,3.71,2.69,3.71-1.13,1.53,1.92,2.45A4.51,4.51,0,0,1,13.06,52s-1,.74.27,2,5.17,2.5,5.17,2.5a2.65,2.65,0,0,0,1.68,2.33c1.75.92,5.48-.2,5.48-.2a4.93,4.93,0,0,0,.15-3.35,5.29,5.29,0,0,0-2.32-2.89,2.77,2.77,0,0,0,.08-2.78,8.41,8.41,0,0,0-2.64-2.63,6.22,6.22,0,0,0-.17-3.74,3.35,3.35,0,0,0-2.38-1.62A2.94,2.94,0,0,0,18,39.13a2.78,2.78,0,0,0-2-.84,34.83,34.83,0,0,0,6.47-3.76,15.78,15.78,0,0,0,4.88-5.42,6.53,6.53,0,0,1-.65,2.33c-.5,1-2.86,3-4,3.87h0c-.36.3-.61.49-.61.49a6.39,6.39,0,0,1,2.65,1.25,5.57,5.57,0,0,1,1.8,3.13,9.76,9.76,0,0,1,3.34,2.37,10.5,10.5,0,0,1,3.88,1.11A41.07,41.07,0,0,1,40,47.93Z"/><path class="cls-5" d="M37.05,18.3a3.78,3.78,0,0,1-.73,3c-1.08,1.27-4.58,3-4.58,3a3.09,3.09,0,0,1-.5,2.63c-.94,1.1-3.88,2.07-3.88,2.07a1.29,1.29,0,0,1,0,.19q0,.13,0,.33c-.31.39-.88,1.12-1.88,2.43a15.57,15.57,0,0,1-4.73,3.85c.19-.19,1.36-1.28,2.73-2.85A5.63,5.63,0,0,0,25,30.06a14.53,14.53,0,0,0,3.45-3c.82-1.32-1.08-1.45-1.08-1.45a24.1,24.1,0,0,1,3.14-2,12.17,12.17,0,0,0,2.61-1.73,4.77,4.77,0,0,0,2-1.56,3.84,3.84,0,0,0,.43-2.43A2.7,2.7,0,0,0,37,16.63a1.22,1.22,0,0,0-.55-1.53,1.88,1.88,0,0,0,.73-1.29A4,4,0,0,0,36.34,12s.91-.36.24-1.36a26.09,26.09,0,0,0-4-3.34s.47-.34-.27-1.57c-.44-.74-3-2.16-5-3.16a19.16,19.16,0,0,1,3.53,1c3.43,1.38,3.29,4,3.29,4a13.59,13.59,0,0,1,3.3,2.49c1.38,1.49,1,4.09,1,4.09a4.3,4.3,0,0,1,.44,1.94C38.81,17.08,37.05,18.3,37.05,18.3Z"/><path class="cls-6" d="M29,7.16a3.77,3.77,0,0,1,1.3,0,3.64,3.64,0,0,0,.63.16,1.74,1.74,0,0,0,.64-.09,11.21,11.21,0,0,0,1.16-.44,5.29,5.29,0,0,0,1.07-.6h0v0A1.68,1.68,0,0,1,33,7.29a2.48,2.48,0,0,1-1.36.22,5,5,0,0,0-.67,0c-.22,0-.44.08-.67.1A2.17,2.17,0,0,1,29,7.21a0,0,0,0,1,0,0Z"/><path class="cls-7" d="M28.66,9.16l2.14,1.45a7.8,7.8,0,0,0,1.08.72,4.39,4.39,0,0,0,1.23.38,8.89,8.89,0,0,0,2.52.06,10.73,10.73,0,0,0,2.48-.58s0,0,0,0,0,0,0,0a5,5,0,0,1-2.44,1.07A5.41,5.41,0,0,1,33,12l-1.23-.5c-.41-.16-.83-.31-1.23-.51a5.55,5.55,0,0,1-1.95-1.78,0,0,0,0,1,0,0Z"/><path class="cls-8" d="M38.84,15.8a7.15,7.15,0,0,1-2.66,1.36c-.49.12-1,.19-1.49.28s-1,.23-1.47.31a5.69,5.69,0,0,1-3.06-.12,3.89,3.89,0,0,1-2.24-2s0,0,0,0h0a5.43,5.43,0,0,0,2.38,1.56,8.18,8.18,0,0,0,2.85.36,5.66,5.66,0,0,0,1.47-.2,13.65,13.65,0,0,0,1.39-.52,26.28,26.28,0,0,1,2.84-1,0,0,0,0,0,0,0h0Z"/><path class="cls-9" d="M24.28,18.78a9.17,9.17,0,0,0,2.54,2,7.72,7.72,0,0,0,1.48.7,6,6,0,0,0,1.63.23,25.36,25.36,0,0,0,3.26-.2l1.63-.22c.54-.1,1.09-.19,1.65-.24l0,0s0,0,0,0c-.51.21-1,.4-1.57.58s-1.09.26-1.65.36A10.82,10.82,0,0,1,29.9,22c-.56-.08-1.1-.23-1.64-.34-.27-.08-.55-.14-.82-.2l-.81-.28a4.7,4.7,0,0,1-2.39-2.34s0,0,0,0Z"/><path class="cls-10" d="M18.19,23.11c1.07.55,2.13,1,3.22,1.45a13.73,13.73,0,0,0,1.65.64,8.75,8.75,0,0,0,1.76.23,19.42,19.42,0,0,0,3.5-.2,30.26,30.26,0,0,0,3.47-.66s0,0,0,0,0,0,0,0a10.59,10.59,0,0,1-7,1.09c-.6-.1-1.17-.25-1.76-.35s-1.19-.23-1.76-.4a8.32,8.32,0,0,1-3.11-1.81,0,0,0,0,1,0,0Z"/><path class="cls-11" d="M27.37,29a17.05,17.05,0,0,1-3.57,1.73L20,31.77a5.22,5.22,0,0,1-4-.41,7.43,7.43,0,0,1-1.66-1.17,4.45,4.45,0,0,1-1.17-1.64s0,0,0,0,0,0,0,0h0a8.73,8.73,0,0,0,3,2.35,7.26,7.26,0,0,0,1.79.6,6.43,6.43,0,0,0,1.91,0,11.82,11.82,0,0,0,3.73-1.21c1.21-.51,2.44-1,3.7-1.39,0,0,0,0,0,0A0,0,0,0,1,27.37,29Z"/><path class="cls-12" d="M3.87,36.46a14.43,14.43,0,0,0,4.27,2.36A7.54,7.54,0,0,0,13,39.1a40.71,40.71,0,0,0,4.67-1.58l4.6-1.89h0s0,0,0,0A25.5,25.5,0,0,1,17.84,38,19.67,19.67,0,0,1,13,39.37a12.82,12.82,0,0,1-5-.15,8.6,8.6,0,0,1-4.18-2.73,0,0,0,0,1,0,0Z"/><path class="cls-13" d="M24.72,37.08a24.5,24.5,0,0,1-4.58,3.79c-1.71,1-3.46,1.94-5.2,2.9a23.5,23.5,0,0,1-5.58,2.11A16.1,16.1,0,0,1,3.41,46s0,0,0,0,0,0,0,0a26.51,26.51,0,0,0,5.84-.62,40,40,0,0,0,5.57-1.85,22.57,22.57,0,0,0,5.08-3c1.61-1.14,3.21-2.28,4.78-3.48h0A0,0,0,0,1,24.72,37.08Z"/><path class="cls-14" d="M9.45,53.94l4.91-2.72a23.49,23.49,0,0,0,4.72-3,38.82,38.82,0,0,0,4.09-3.8,20.42,20.42,0,0,0,3.24-4.51h0s0,0,0,0a13.36,13.36,0,0,1-2.9,4.85,22.47,22.47,0,0,1-4.31,3.66l-4.68,3.15A26.09,26.09,0,0,1,9.47,54s0,0,0,0A0,0,0,0,1,9.45,53.94Z"/><path class="cls-15" d="M29.87,42.57A9.45,9.45,0,0,1,29,45.32a17.28,17.28,0,0,1-1.43,2.51c-1.16,1.54-2.48,2.92-3.75,4.35A29.43,29.43,0,0,1,19.56,56c-.77.56-1.59,1.07-2.39,1.59s-1.67.94-2.52,1.37c0,0,0,0,0,0s0,0,0,0c.77-.57,1.55-1.12,2.33-1.66s1.53-1.13,2.3-1.68c1.49-1.17,3-2.32,4.39-3.62a18.12,18.12,0,0,0,3.6-4.39,24.39,24.39,0,0,0,2.58-5l0,0S29.87,42.56,29.87,42.57Z"/><path class="cls-16" d="M17.18,63.24c2-1,4-2.12,5.92-3.25a27.93,27.93,0,0,0,5.55-3.85,47.4,47.4,0,0,0,4.66-4.85A36.61,36.61,0,0,0,37,45.67s0,0,0,0,0,0,0,0a21.42,21.42,0,0,1-3.35,5.92,29.24,29.24,0,0,1-4.88,4.75c-1.83,1.35-3.62,2.72-5.51,4a28.57,28.57,0,0,1-6.13,2.94s0,0,0,0S17.16,63.25,17.18,63.24Z"/><path class="cls-17" d="M31.32,7.41a3.91,3.91,0,0,1,.36,2.22,1.78,1.78,0,0,1-.71,1s1.61.36,1.36,2.56a8.26,8.26,0,0,1-2,4.05s.05.77-1.84,1.89a7.84,7.84,0,0,1-2.81,1.21S23,21.25,22,22.72s-.75,2-.75,2A6.29,6.29,0,0,0,15.57,31s-2.83-.23-3.19,1.93-1.28,1-3.1,2.82-1.07,3.45-1.07,3.45S6.7,38.79,6.8,42s2.08,3.57,2.41,3.66-.92,1.55,1.72,2.07,3,4,3,4a3.32,3.32,0,0,0,2.32,2.75,7.51,7.51,0,0,1,3,1.74,6.11,6.11,0,0,0,4,1.95c2.31.08,2.63-1.83,1.72-3.32a4.1,4.1,0,0,0-2.53-1.78,3.79,3.79,0,0,0,.06-3.4,3.3,3.3,0,0,0-2.37-2.2A4,4,0,0,0,19.74,44a4.21,4.21,0,0,0-2-1.82s-.07-2.1-.86-2.85a3.3,3.3,0,0,0-1.55-.87s4.84-3.2,6.25-5.16a13.84,13.84,0,0,0,1.63-2.57s2.56-1.31,3-2.75a4.63,4.63,0,0,0,.26-2.31A6.7,6.7,0,0,1,28.7,24a21.72,21.72,0,0,0,3-2,4.36,4.36,0,0,0,2.64-2.37,7.06,7.06,0,0,0,.53-2.43s.48-.28.77-2.17a9.45,9.45,0,0,0,.07-2.94s-.3-2-1-2.53a26,26,0,0,1-2.31-2.48,6.53,6.53,0,0,0-2.16-2.43A14.11,14.11,0,0,0,27,2.94,7.63,7.63,0,0,1,31.32,7.41Z"/><path class="cls-18" d="M29.89,14.4c-.83,1.66-3.15,2.2-3.46,2.38a20.42,20.42,0,0,0-1.81,2.68,6.32,6.32,0,0,0-3.69,2,11.2,11.2,0,0,1-2.09,2.25,8.14,8.14,0,0,0-3.35,2.75,12.48,12.48,0,0,1-2,2.65,2.7,2.7,0,0,0-1.35.42C11.21,30,10.7,31.16,9.9,32s-.41.36-2.15,1.1-1.82,3.66-1.82,3.66-4.18,1.89-3.19,3.83,1.62,5,2.14,5.73,1.38,1,3.61,3.06,2.59,6,2.59,6S13,55.66,16,59a17.92,17.92,0,0,1,3.55,6.82c-.75.27-1.19.39-1.19.39s-1.92-5.7-4.76-8.33c-.87-.8-3.77-1.77-3.87-2.32s-.4-3.77-2.36-6-3.88-2-4.13-4.12S1.32,40.79,1.51,39.3s3.11-3.38,3.37-3.57.7-2.3,1.92-3.15,1.79-.14,3.07-1.83a6.09,6.09,0,0,1,3.24-2.16,7.25,7.25,0,0,0,1.82-2.49A9.8,9.8,0,0,1,18.44,23s.94-.19,2.24-2a5.61,5.61,0,0,1,3.57-2.15c.12,0,1.94-2.49,2.16-2.63s2.49-.47,3-2.36-.83-3.7-.77-4.53,1.11-1.36,0-2.72a53.53,53.53,0,0,0-4.08-3.79A18.57,18.57,0,0,1,29,6.07a3.39,3.39,0,0,1,.19,3.62C29.28,9.77,30.72,12.73,29.89,14.4Z"/><ellipse class="cls-19" cx="7.78" cy="42.12" rx="0.98" ry="1.8"/><ellipse class="cls-19" cx="9.46" cy="43.47" rx="0.47" ry="0.85"/><path class="cls-20" d="M40,47.93a16.33,16.33,0,0,1-.77,1.64,12.82,12.82,0,0,0-3.8-3.89,9.15,9.15,0,0,0-6.14-1.16A5.35,5.35,0,0,0,27.78,42a2.25,2.25,0,0,0-2.27-.17A9.21,9.21,0,0,0,24,38a6.48,6.48,0,0,0-3.27-1.78l2-.89c-.36.3-.61.49-.61.49a6.39,6.39,0,0,1,2.65,1.25,5.57,5.57,0,0,1,1.8,3.13,9.76,9.76,0,0,1,3.34,2.37,10.5,10.5,0,0,1,3.88,1.11A41.07,41.07,0,0,1,40,47.93Z"/><path class="cls-21" d="M137,47.93c4.89,11.55,16.68,16.52,20.47,17.85.76.27,1.2.39,1.2.39s1.91-5.7,4.76-8.33c.86-.8,3.76-1.77,3.87-2.32a12,12,0,0,1,2.35-6c2-2.27,3.88-2,4.13-4.12s1.93-4.57,1.74-6.06-3.1-3.38-3.37-3.57-.7-2.3-1.91-3.15-1.8-.14-3.08-1.83a6.12,6.12,0,0,0-3.23-2.16,7,7,0,0,1-1.83-2.49A9.8,9.8,0,0,0,158.59,23s-.94-.19-2.24-2a5.61,5.61,0,0,0-3.57-2.15c-.12,0-1.94-2.49-2.16-2.63s-2.49-.47-3-2.36.83-3.7.77-4.53-1.1-1.36,0-2.72a51.3,51.3,0,0,1,4.07-3.79c.78-.68,1.38-1.18,1.49-1.27s-2.23.66-4.27,1.07a19.16,19.16,0,0,0-3.53,1c-3.43,1.38-3.29,4-3.29,4a13.8,13.8,0,0,0-3.3,2.49c-1.38,1.49-1,4.09-1,4.09a4.3,4.3,0,0,0-.44,1.94c.05,1,1.82,2.19,1.82,2.19a3.76,3.76,0,0,0,.72,3c1.08,1.27,4.59,3,4.59,3a3.09,3.09,0,0,0,.5,2.63c.94,1.1,3.88,2.07,3.88,2.07s0,.07,0,.19,0,.2,0,.33a6.83,6.83,0,0,0,.62,2c.66,1.33,4.65,4.37,4.65,4.37a6.4,6.4,0,0,0-2.66,1.25,5.57,5.57,0,0,0-1.8,3.13,9.76,9.76,0,0,0-3.34,2.37,10.5,10.5,0,0,0-3.88,1.11A41.07,41.07,0,0,0,137,47.93Z"/><path class="cls-22" d="M154,1.5h0m0,0c-.11.09-.71.59-1.49,1.27a51.3,51.3,0,0,0-4.07,3.79c-1.13,1.36-.08,1.89,0,2.72s-1.27,2.65-.77,4.53,2.77,2.22,3,2.36,2,2.63,2.16,2.63A5.61,5.61,0,0,1,156.35,21c1.3,1.83,2.24,2,2.24,2a9.8,9.8,0,0,1,3.51,3.13,7,7,0,0,0,1.83,2.49,6.12,6.12,0,0,1,3.23,2.16c1.28,1.69,1.86,1,3.08,1.83s1.63,3,1.91,3.15,3.18,2.08,3.37,3.57-1.49,3.93-1.74,6.06-2.16,1.85-4.13,4.12a12,12,0,0,0-2.35,6c-.11.55-3,1.52-3.87,2.32-2.85,2.63-4.76,8.33-4.76,8.33s-.44-.12-1.2-.39c-3.79-1.33-15.58-6.3-20.47-17.85a41.07,41.07,0,0,1,6.31-4.26,10.5,10.5,0,0,1,3.88-1.11,9.76,9.76,0,0,1,3.34-2.37,5.57,5.57,0,0,1,1.8-3.13A6.4,6.4,0,0,1,155,35.81s-4-3-4.65-4.37a6.83,6.83,0,0,1-.62-2q0-.2,0-.33c0-.12,0-.19,0-.19s-2.94-1-3.88-2.07a3.09,3.09,0,0,1-.5-2.63s-3.51-1.69-4.59-3a3.76,3.76,0,0,1-.72-3s-1.77-1.22-1.82-2.19a4.3,4.3,0,0,1,.44-1.94s-.39-2.6,1-4.09a13.8,13.8,0,0,1,3.3-2.49s-.14-2.63,3.29-4a19.16,19.16,0,0,1,3.53-1c2-.41,4.25-1.07,4.27-1.07M154,0h0l-.23,0-.2,0-.14,0c-1.54.44-2.89.78-4,1a20.18,20.18,0,0,0-3.8,1.09,6.22,6.22,0,0,0-4.13,4.47,14.87,14.87,0,0,0-3,2.4,6.66,6.66,0,0,0-1.42,4.87,5.62,5.62,0,0,0-.41,2.27A4.39,4.39,0,0,0,138.43,19a4.94,4.94,0,0,0,1.14,3.24,16,16,0,0,0,4.13,2.86,4.16,4.16,0,0,0,1,2.73A10,10,0,0,0,148.3,30a7.8,7.8,0,0,0,.7,2.09,13.57,13.57,0,0,0,3.1,3.3c-.22.14-.44.29-.67.46a6.51,6.51,0,0,0-2.17,3.27,11.38,11.38,0,0,0-2.76,2,13.88,13.88,0,0,0-3.81,1.18,41,41,0,0,0-6.63,4.47,1.49,1.49,0,0,0-.44,1.74C140.78,60.71,153.27,65.9,157,67.2c.79.28,1.28.41,1.3.42a1.74,1.74,0,0,0,.39,0,1.5,1.5,0,0,0,1.42-1c0-.06,1.83-5.37,4.36-7.71a11.28,11.28,0,0,1,1.69-.92c1.46-.71,2.43-1.18,2.63-2.21a3.48,3.48,0,0,0,.06-.35,10.08,10.08,0,0,1,2-5,8,8,0,0,1,2-1.59,4.28,4.28,0,0,0,2.49-3.34,12,12,0,0,1,.85-2.67,7.84,7.84,0,0,0,.89-3.75c-.17-1.35-1.39-2.8-3.73-4.42l-.08-.2a6.62,6.62,0,0,0-2.1-3.14,4.51,4.51,0,0,0-1.7-.74c-.42-.11-.58-.15-1-.77a7.65,7.65,0,0,0-3.7-2.6,8.47,8.47,0,0,1-1.23-1.84,11.1,11.1,0,0,0-4.14-3.76c-.18-.09-.17-.13-.33-.14a4.54,4.54,0,0,1-1.39-1.42,7.07,7.07,0,0,0-4-2.65l-.66-.85c-1-1.26-1.17-1.48-1.47-1.68a2.46,2.46,0,0,0-.65-.26c-.78-.24-1.52-.55-1.7-1.21a4.32,4.32,0,0,1,.41-2.41,4.56,4.56,0,0,0,.41-1.85,3.42,3.42,0,0,0-.38-1.26,1,1,0,0,1-.09-.18,1.93,1.93,0,0,1,.16-.21,48.72,48.72,0,0,1,3.89-3.62l1.43-1.21a1.5,1.5,0,0,0,.58-1.19A1.49,1.49,0,0,0,154,0Zm0,3h0Z"/><path class="cls-4" d="M137,47.93c.24.56.49,1.11.77,1.64,6.36,12.57,20.9,16.6,20.9,16.6s1.91-5.7,4.76-8.33c.86-.8,3.76-1.77,3.87-2.32a12,12,0,0,1,2.35-6c2-2.27,3.88-2,4.13-4.12s1.93-4.57,1.74-6.06-3.1-3.38-3.37-3.57-.7-2.3-1.91-3.15-1.8-.14-3.08-1.83a6.12,6.12,0,0,0-3.23-2.16,7,7,0,0,1-1.83-2.49A9.8,9.8,0,0,0,158.59,23s-.94-.19-2.24-2a5.61,5.61,0,0,0-3.57-2.15c-.12,0-1.94-2.49-2.16-2.63s-2.49-.47-3-2.36.83-3.7.77-4.53-1.1-1.36,0-2.72a57.3,57.3,0,0,1,4.93-4.41c-.33.13-5.72,2.22-6.76,4.48a2.68,2.68,0,0,0,.71,3.5,3.65,3.65,0,0,0-1.69,3c.11,1.83,2.41,3.54,2.41,3.54a8.26,8.26,0,0,1,2.41,1.27,4.36,4.36,0,0,1,1.26,2.45,6.88,6.88,0,0,1,3.59.95A4,4,0,0,1,157,24.24a13.53,13.53,0,0,1,3.62,1.84c1.52,1.19,2.14,4.08,2.14,4.08a4.22,4.22,0,0,1,3.17,2.34c1,2.1,1.14,1.64,2.94,2.22S170,38.64,170,38.64s2.36,1.54,2,3.76-2.69,3.71-2.69,3.71,1.13,1.53-1.93,2.45A4.49,4.49,0,0,0,164,52s1,.74-.28,2-5.17,2.5-5.17,2.5a2.65,2.65,0,0,1-1.67,2.33c-1.76.92-5.49-.2-5.49-.2a5,5,0,0,1-.15-3.35,5.28,5.28,0,0,1,2.33-2.89,2.75,2.75,0,0,1-.09-2.78,8.4,8.4,0,0,1,2.65-2.63,6.18,6.18,0,0,1,.16-3.74,3.35,3.35,0,0,1,2.38-1.62,2.94,2.94,0,0,1,.35-2.45,2.79,2.79,0,0,1,2-.84,34.83,34.83,0,0,1-6.47-3.76,15.78,15.78,0,0,1-4.88-5.42,6.53,6.53,0,0,0,.65,2.33c.5,1,2.86,3,4,3.87h0l.62.49a6.4,6.4,0,0,0-2.66,1.25,5.57,5.57,0,0,0-1.8,3.13,9.76,9.76,0,0,0-3.34,2.37,10.5,10.5,0,0,0-3.88,1.11A41.07,41.07,0,0,0,137,47.93Z"/><path class="cls-23" d="M140,18.3a3.76,3.76,0,0,0,.72,3c1.08,1.27,4.59,3,4.59,3a3.09,3.09,0,0,0,.5,2.63c.94,1.1,3.88,2.07,3.88,2.07s0,.07,0,.19,0,.2,0,.33c.31.39.88,1.12,1.89,2.43a15.45,15.45,0,0,0,4.72,3.85c-.19-.19-1.36-1.28-2.72-2.85A5.61,5.61,0,0,1,152,30.06a14.53,14.53,0,0,1-3.45-3c-.82-1.32,1.09-1.45,1.09-1.45a24.66,24.66,0,0,0-3.15-2,11.9,11.9,0,0,1-2.6-1.73,4.77,4.77,0,0,1-2-1.56,3.87,3.87,0,0,1-.42-2.43A2.71,2.71,0,0,1,140,16.63a1.22,1.22,0,0,1,.55-1.53,1.88,1.88,0,0,1-.73-1.29,4,4,0,0,1,.86-1.81s-.91-.36-.24-1.36a26.09,26.09,0,0,1,4-3.34s-.46-.34.27-1.57c.44-.74,3-2.16,5-3.16a19.16,19.16,0,0,0-3.53,1c-3.43,1.38-3.29,4-3.29,4a13.8,13.8,0,0,0-3.3,2.49c-1.38,1.49-1,4.09-1,4.09a4.3,4.3,0,0,0-.44,1.94C138.22,17.08,140,18.3,140,18.3Z"/><path class="cls-24" d="M148,7.21a2.21,2.21,0,0,1-1.28.38c-.22,0-.45-.08-.67-.1a4.85,4.85,0,0,0-.66,0,2.48,2.48,0,0,1-1.36-.22,1.68,1.68,0,0,1-.88-1.07s0,0,0,0h0a4.81,4.81,0,0,0,1.07.6,10.4,10.4,0,0,0,1.16.44,1.69,1.69,0,0,0,.63.09,3.53,3.53,0,0,0,.64-.16,3.77,3.77,0,0,1,1.3,0s0,0,0,0Z"/><path class="cls-25" d="M148.41,9.19A5.55,5.55,0,0,1,146.46,11c-.4.2-.82.35-1.23.51L144,12a5.46,5.46,0,0,1-2.66.33,5,5,0,0,1-2.44-1.07,0,0,0,0,1,0,0h0a10.73,10.73,0,0,0,2.48.58,8.89,8.89,0,0,0,2.52-.06,4.5,4.5,0,0,0,1.23-.38,7.8,7.8,0,0,0,1.08-.72l2.13-1.45h0S148.42,9.19,148.41,9.19Z"/><path class="cls-26" d="M138.14,15.8a25.73,25.73,0,0,1,2.85,1,13.65,13.65,0,0,0,1.39.52,5.6,5.6,0,0,0,1.47.2,8.18,8.18,0,0,0,2.85-.36,5.49,5.49,0,0,0,2.38-1.56h0s0,0,0,0a3.89,3.89,0,0,1-2.24,2,5.69,5.69,0,0,1-3.06.12c-.5-.08-1-.22-1.48-.31s-1-.16-1.48-.28a7.19,7.19,0,0,1-2.67-1.36l0,0h0s0,0,0,0Z"/><path class="cls-27" d="M152.8,18.81a4.74,4.74,0,0,1-2.39,2.34l-.81.28c-.27.06-.55.12-.82.2-.55.11-1.08.26-1.64.34a10.88,10.88,0,0,1-3.37.06c-.55-.1-1.1-.22-1.64-.36s-1.06-.37-1.58-.58c0,0,0,0,0,0h0c.56.05,1.1.14,1.65.24l1.62.22a25.52,25.52,0,0,0,3.27.2,6,6,0,0,0,1.63-.23,8,8,0,0,0,1.48-.7,9.17,9.17,0,0,0,2.54-2s0,0,0,0S152.8,18.8,152.8,18.81Z"/><path class="cls-28" d="M158.87,23.15a8.21,8.21,0,0,1-3.1,1.81c-.58.17-1.18.27-1.76.4s-1.17.25-1.76.35a10.59,10.59,0,0,1-7-1.09,0,0,0,0,1,0,0h0a30.85,30.85,0,0,0,3.48.66,19.42,19.42,0,0,0,3.5.2A8.56,8.56,0,0,0,154,25.2a13.88,13.88,0,0,0,1.66-.64c1.08-.44,2.15-.9,3.21-1.45h0A.06.06,0,0,1,158.87,23.15Z"/><path class="cls-29" d="M149.69,28.9c1.26.41,2.48.88,3.7,1.39a11.74,11.74,0,0,0,3.73,1.21,6.36,6.36,0,0,0,1.9,0,7.12,7.12,0,0,0,1.79-.6,8.67,8.67,0,0,0,3-2.35h0s0,0,0,0a0,0,0,0,1,0,0,4.47,4.47,0,0,1-1.18,1.64,7.15,7.15,0,0,1-1.65,1.17,5.23,5.23,0,0,1-4,.41l-3.83-1.09A17.05,17.05,0,0,1,149.67,29s0,0,0,0Z"/><path class="cls-30" d="M173.21,36.49A8.58,8.58,0,0,1,169,39.22a12.77,12.77,0,0,1-5,.15A19.55,19.55,0,0,1,159.2,38a25.59,25.59,0,0,1-4.43-2.32,0,0,0,0,1,0,0h0l4.59,1.89a40.86,40.86,0,0,0,4.68,1.58,7.54,7.54,0,0,0,4.83-.28,14.43,14.43,0,0,0,4.27-2.36h0Z"/><path class="cls-31" d="M152.35,37c1.58,1.2,3.18,2.34,4.78,3.48a23,23,0,0,0,5.08,3,40.08,40.08,0,0,0,5.58,1.85,26.42,26.42,0,0,0,5.83.62s0,0,0,0,0,0,0,0a16.1,16.1,0,0,1-5.95-.16,23.58,23.58,0,0,1-5.59-2.11c-1.74-1-3.48-1.89-5.19-2.9a24.5,24.5,0,0,1-4.58-3.79,0,0,0,0,1,0,0Z"/><path class="cls-32" d="M167.57,54a25.82,25.82,0,0,1-5.1-2.4l-4.68-3.15a22.47,22.47,0,0,1-4.31-3.66,13.36,13.36,0,0,1-2.9-4.85,0,0,0,0,1,0,0h0a20.75,20.75,0,0,0,3.24,4.51,40.89,40.89,0,0,0,4.09,3.8,23.84,23.84,0,0,0,4.73,3l4.91,2.72a0,0,0,0,1,0,0S167.58,54,167.57,54Z"/><path class="cls-33" d="M147.21,42.56a24.93,24.93,0,0,0,2.59,5A18.08,18.08,0,0,0,153.39,52c1.4,1.3,2.91,2.45,4.4,3.62.77.55,1.53,1.11,2.29,1.68s1.57,1.09,2.34,1.66c0,0,0,0,0,0a0,0,0,0,1,0,0c-.85-.43-1.69-.89-2.52-1.37s-1.62-1-2.39-1.59a28.92,28.92,0,0,1-4.28-3.84c-1.27-1.43-2.59-2.81-3.75-4.35A16.46,16.46,0,0,1,148,45.32a10.09,10.09,0,0,1-.85-2.75s0,0,0,0S147.21,42.55,147.21,42.56Z"/><path class="cls-34" d="M159.84,63.29a28.49,28.49,0,0,1-6.12-2.94c-1.89-1.27-3.69-2.64-5.51-4a29.3,29.3,0,0,1-4.89-4.75A21.65,21.65,0,0,1,140,45.69s0,0,0,0,0,0,0,0a35.89,35.89,0,0,0,3.7,5.62,47.4,47.4,0,0,0,4.66,4.85A27.93,27.93,0,0,0,153.94,60c1.94,1.13,3.91,2.23,5.92,3.25,0,0,0,0,0,0Z"/><path class="cls-35" d="M145.72,7.41a3.91,3.91,0,0,0-.36,2.22,1.75,1.75,0,0,0,.7,1s-1.6.36-1.35,2.56a8.26,8.26,0,0,0,2,4.05s0,.77,1.84,1.89a7.77,7.77,0,0,0,2.8,1.21s2.68.9,3.7,2.37.75,2,.75,2A6.29,6.29,0,0,1,161.47,31s2.82-.23,3.19,1.93,1.28,1,3.09,2.82,1.07,3.45,1.07,3.45,1.51-.38,1.42,2.85-2.09,3.57-2.41,3.66.92,1.55-1.72,2.07-3,4-3,4a3.34,3.34,0,0,1-2.32,2.75,7.51,7.51,0,0,0-3,1.74,6.15,6.15,0,0,1-4,1.95c-2.31.08-2.64-1.83-1.72-3.32a4.09,4.09,0,0,1,2.52-1.78,3.81,3.81,0,0,1,0-3.4,3.3,3.3,0,0,1,2.37-2.2A4,4,0,0,1,157.3,44a4.22,4.22,0,0,1,2-1.82s.08-2.1.86-2.85a3.34,3.34,0,0,1,1.55-.87s-4.83-3.2-6.25-5.16a14,14,0,0,1-1.62-2.57s-2.56-1.31-3-2.75a4.58,4.58,0,0,1-.27-2.31A6.71,6.71,0,0,0,148.34,24a20.94,20.94,0,0,1-3-2,4.34,4.34,0,0,1-2.64-2.37,7.32,7.32,0,0,1-.54-2.43s-.47-.28-.76-2.17a9.31,9.31,0,0,1-.08-2.94s.31-2,1-2.53a26,26,0,0,0,2.31-2.48,6.53,6.53,0,0,1,2.16-2.43A13.89,13.89,0,0,1,150,2.94,7.63,7.63,0,0,0,145.72,7.41Z"/><path class="cls-36" d="M147.14,14.4c.83,1.66,3.16,2.2,3.47,2.38a20.42,20.42,0,0,1,1.81,2.68,6.34,6.34,0,0,1,3.69,2,11,11,0,0,0,2.08,2.25,8.21,8.21,0,0,1,3.36,2.75,12.68,12.68,0,0,0,2,2.65,2.67,2.67,0,0,1,1.35.42c.95.47,1.46,1.67,2.26,2.49s.42.36,2.15,1.1,1.83,3.66,1.83,3.66,4.17,1.89,3.18,3.83-1.61,5-2.14,5.73-1.38,1-3.6,3.06-2.6,6-2.6,6S164,55.66,161,59a18.06,18.06,0,0,0-3.55,6.82c.76.27,1.2.39,1.2.39s1.91-5.7,4.76-8.33c.86-.8,3.76-1.77,3.87-2.32a12,12,0,0,1,2.35-6c2-2.27,3.88-2,4.13-4.12s1.93-4.57,1.74-6.06-3.1-3.38-3.37-3.57-.7-2.3-1.91-3.15-1.8-.14-3.08-1.83a6.12,6.12,0,0,0-3.23-2.16,7,7,0,0,1-1.83-2.49A9.8,9.8,0,0,0,158.59,23s-.94-.19-2.24-2a5.61,5.61,0,0,0-3.57-2.15c-.12,0-1.94-2.49-2.16-2.63s-2.49-.47-3-2.36.83-3.7.77-4.53-1.1-1.36,0-2.72a51.3,51.3,0,0,1,4.07-3.79A18.57,18.57,0,0,0,148,6.07c-1.4,1.76-.1,3.54-.19,3.62S146.31,12.73,147.14,14.4Z"/><ellipse class="cls-37" cx="169.26" cy="42.12" rx="0.98" ry="1.8"/><ellipse class="cls-37" cx="167.58" cy="43.47" rx="0.47" ry="0.85"/><path class="cls-38" d="M137,47.93c.24.56.49,1.11.77,1.64a13.06,13.06,0,0,1,3.8-3.89,9.15,9.15,0,0,1,6.14-1.16A5.44,5.44,0,0,1,149.25,42a2.25,2.25,0,0,1,2.27-.17,9.21,9.21,0,0,1,1.54-3.8,6.48,6.48,0,0,1,3.27-1.78l-2-.89.62.49a6.4,6.4,0,0,0-2.66,1.25,5.57,5.57,0,0,0-1.8,3.13,9.76,9.76,0,0,0-3.34,2.37,10.5,10.5,0,0,0-3.88,1.11A41.07,41.07,0,0,0,137,47.93Z"/></g></g></g></svg>